<svg xmlns="http://www.w3.org/2000/svg" viewBox="0 0 35 35">
	<path fill="#888787" d="M10.9,27.6H4.4C3.6,27.6,3,27,3,26.2V8.8C3,8,3.6,7.4,4.4,7.4h6.6c1.5,0,3,0.6,4.1,1.7
		c1.1,1.1,1.7,2.5,1.7,4.1s-0.6,3-1.7,4.1c-0.1,0.1-0.2,0.2-0.3,0.3c0.1,0.1,0.2,0.2,0.3,0.3c1.1,1.1,1.7,2.5,1.7,4.1
		s-0.6,3-1.7,4.1C13.9,27,12.5,27.6,10.9,27.6z M5.8,24.9h5.2c0.8,0,1.6-0.3,2.1-0.9c0.6-0.6,0.9-1.3,0.9-2.1s-0.3-1.6-0.9-2.1
		c-0.6-0.6-1.3-0.9-2.1-0.9H5.8V24.9z M5.8,16.1h5.2c0.8,0,1.6-0.3,2.1-0.9c0.6-0.6,0.9-1.3,0.9-2.1s-0.3-1.6-0.9-2.1
		c-0.6-0.6-1.3-0.9-2.1-0.9H5.8V16.1z"/>
	<path fill="#888787" d="M25.5,27.7c-0.3,0-0.6,0-1-0.1c-1.4-0.2-2.7-0.9-3.6-1.9s-1.6-2.3-1.8-3.7c0-0.1,0-0.1,0-0.2V19
		c0-1.7,0.7-3.4,1.9-4.6c1.2-1.2,2.8-1.9,4.6-1.9s3.4,0.7,4.6,1.9c1.2,1.2,1.9,2.9,1.9,4.6c0,0.8-0.6,1.4-1.4,1.4h-8.8v1.4
		c0.1,0.8,0.5,1.5,1,2c0.6,0.6,1.3,0.9,2.1,1.1c0.8,0.1,1.6,0,2.3-0.4c0.7-0.4,1.3-1,1.6-1.7c0.3-0.7,1.1-1,1.8-0.7
		c0.7,0.3,1,1.1,0.7,1.8c-0.6,1.3-1.6,2.3-2.8,3C27.6,27.4,26.5,27.7,25.5,27.7z M22.1,17.6H29c-0.2-0.5-0.5-0.9-0.8-1.3
		c-1.4-1.4-3.9-1.4-5.3,0C22.5,16.7,22.2,17.1,22.1,17.6z"/>
	<path fill="#888787" d="M27.7,10.1h-4.4c-0.8,0-1.4-0.6-1.4-1.4s0.6-1.4,1.4-1.4h4.4c0.8,0,1.4,0.6,1.4,1.4S28.5,10.1,27.7,10.1z"/>
</svg>
