<svg xmlns="http://www.w3.org/2000/svg" viewBox="0 0 44 44">
	<style type="text/css">
		.st0{fill:url(#SVGID_1_);}
		.st1{fill:url(#SVGID_00000176758509744422251830000017141205816485802171_);}
		.st2{fill:#3BE8BB;}
	</style>
		<linearGradient id="SVGID_1_" gradientUnits="userSpaceOnUse" x1="1.9289" y1="481.299" x2="21.7179" y2="468.931" gradientTransform="matrix(1 0 0 1 0 -454)">
			<stop offset="0" style="stop-color:#72AFD3" />
			<stop offset="1" style="stop-color:#37ECBA" />
		</linearGradient>
		<path class="st0" d="M13.8,34.4H5.5c-0.8,0-1.4-0.6-1.4-1.4V11c0-0.8,0.6-1.4,1.4-1.4h8.2c1.8,0,3.6,0.7,4.9,2c1.3,1.3,2,3,2,4.9
		s-0.7,3.6-2,4.9c-0.2,0.2-0.5,0.4-0.7,0.6c0.3,0.2,0.5,0.4,0.7,0.6c1.3,1.3,2,3,2,4.9s-0.7,3.6-2,4.9C17.3,33.7,15.6,34.4,13.8,34.4
		z M6.9,31.6h6.9c1.1,0,2.1-0.4,2.9-1.2c0.8-0.8,1.2-1.8,1.2-2.9s-0.4-2.1-1.2-2.9c-0.8-0.8-1.8-1.2-2.9-1.2H6.9V31.6z M6.9,20.6h6.9
		c1.1,0,2.1-0.4,2.9-1.2c0.8-0.8,1.2-1.8,1.2-2.9s-0.4-2.1-1.2-2.9c-0.8-0.8-1.8-1.2-2.9-1.2H6.9V20.6z" />
		<linearGradient id="SVGID_00000090993001665434388680000008489079479024662973_" gradientUnits="userSpaceOnUse" x1="24.3846" y1="485.4877" x2="39.72" y2="472.8917" gradientTransform="matrix(1 0 0 1 0 -454)">
			<stop offset="0" style="stop-color:#72AFD3" />
			<stop offset="1" style="stop-color:#37ECBA" />
		</linearGradient>
		<path style="fill:url(#SVGID_00000090993001665434388680000008489079479024662973_);" d="M32,34.4c-0.4,0-0.8,0-1.1-0.1
		c-1.7-0.2-3.2-1-4.4-2.2c-1.2-1.2-1.9-2.8-2.2-4.4c0-0.1,0-0.1,0-0.2v-3.7c0-2.1,0.8-4,2.3-5.5C28,16.9,30,16,32.1,16s4,0.8,5.5,2.3
		s2.3,3.4,2.3,5.5c0,0.8-0.6,1.4-1.4,1.4H27v2.2c0.2,1,0.7,2,1.4,2.8c0.8,0.8,1.8,1.3,2.8,1.4c1.1,0.2,2.2,0,3.1-0.5
		c1-0.5,1.7-1.3,2.2-2.3c0.3-0.7,1.1-1,1.8-0.7s1,1.1,0.7,1.8c-0.7,1.5-1.9,2.8-3.4,3.6C34.6,34.1,33.3,34.4,32,34.4z M27.2,22.5h9.7
		c-0.2-0.8-0.7-1.6-1.3-2.2c-1-1-2.2-1.5-3.6-1.5c-1.3,0-2.6,0.5-3.6,1.5C27.9,20.9,27.5,21.6,27.2,22.5z" />
		<path class="st2" d="M34.8,12.4h-5.5c-0.8,0-1.4-0.6-1.4-1.4s0.6-1.4,1.4-1.4h5.5c0.8,0,1.4,0.6,1.4,1.4S35.6,12.4,34.8,12.4z" />
</svg>