<svg xmlns="http://www.w3.org/2000/svg" viewBox="0 0 35 35">
<path fill="#888787" d="M32,17.5C32,9.5,25.5,3,17.5,3S3,9.5,3,17.5S9.5,32,17.5,32c2.6,0,5-0.7,7.1-1.9c0.1-0.1,0.3-0.1,0.4-0.2
	C29.2,27.4,32,22.8,32,17.5z M25.2,26.4c-0.3-2.1-0.8-4.1-1.4-6.1c1.5-0.3,3.3-0.5,5.3-0.5C28.5,22.4,27.1,24.7,25.2,26.4z
	 M26.7,10.2c1.5,1.9,2.4,4.2,2.5,6.8c-2.5,0-4.6,0.2-6.5,0.6c-0.5-1.2-1.1-2.5-1.8-3.7C22.8,13,24.7,11.8,26.7,10.2z M24.8,8.3
	c-1.8,1.4-3.5,2.5-5.3,3.3c-1.2-1.8-2.5-3.7-4-5.6c0.7-0.1,1.3-0.2,2-0.2C20.2,5.8,22.8,6.7,24.8,8.3z M12.6,6.8
	c1.7,2,3.1,4,4.3,5.8c-3.6,1.3-7.1,1.6-10.7,1.6C7.2,11,9.5,8.2,12.6,6.8z M5.8,17.5c0-0.2,0-0.3,0-0.5c4.1,0,8.3-0.4,12.6-2
	c0.6,1.1,1.2,2.2,1.6,3.3c-4.9,1.6-7.7,4.4-10.8,7.5C7.1,23.7,5.8,20.8,5.8,17.5z M11.4,27.5c2.8-2.8,5.3-5.2,9.6-6.6
	c0.8,2.3,1.3,4.6,1.6,7.1c-1.5,0.7-3.3,1.2-5.1,1.2C15.3,29.2,13.2,28.6,11.4,27.5z"/>
</svg>
