<svg xmlns="http://www.w3.org/2000/svg" viewBox="0 0 44 44">
	<style type="text/css">
		.st0{fill:url(#SVGID_1_);}
	</style>
		<linearGradient id="SVGID_1_" gradientUnits="userSpaceOnUse" x1="5.4947" y1="492.4983" x2="38.4983" y2="459.4947" gradientTransform="matrix(1 0 0 1 0 -454)">
			<stop offset="0" style="stop-color:#72AFD3" />
			<stop offset="1" style="stop-color:#37ECBA" />
		</linearGradient>
		<path class="st0" d="M22,39.9c-9.9,0-17.9-8-17.9-17.9S12.1,4.1,22,4.1s17.9,8,17.9,17.9c0,6.5-3.5,12.3-8.8,15.4
		c-0.1,0.1-0.2,0.1-0.3,0.2C28.2,39,25.2,39.9,22,39.9z M13.8,34.7c2.4,1.5,5.2,2.4,8.2,2.4c2.4,0,4.7-0.6,6.8-1.6
		c-0.4-3.4-1-6.6-2.1-9.7C20.9,27.6,17.6,30.9,13.8,34.7z M29.4,25.2c1,2.8,1.6,5.7,2,8.7c2.9-2.3,4.9-5.6,5.6-9.4
		C34,24.5,31.5,24.8,29.4,25.2z M6.9,21.1c0,0.3,0,0.6,0,0.9c0,4.3,1.8,8.2,4.7,11l0.1-0.1c4-4,7.6-7.6,13.9-9.6
		c-0.7-1.6-1.5-3.2-2.4-4.8C17.7,20.6,12.3,21,6.9,21.1z M25.8,17.4c1,1.7,1.8,3.5,2.5,5.2c2.5-0.5,5.4-0.8,8.8-0.9
		c-0.1-3.5-1.3-6.8-3.5-9.3C31,14.5,28.4,16.2,25.8,17.4z M16,8.1c-4.3,1.9-7.5,5.6-8.7,10.2c4.9-0.1,9.6-0.4,14.5-2.2
		C20.2,13.5,18.3,10.9,16,8.1z M18.8,7.2c2.2,2.7,4.1,5.3,5.6,7.8c2.4-1.1,4.8-2.6,7.3-4.6c-2.6-2.2-6-3.5-9.7-3.5
		C20.9,6.9,19.8,7,18.8,7.2z" />
</svg>