<svg xmlns="http://www.w3.org/2000/svg" viewBox="0 0 35 35">
	<path fill="#888787" d="M23.3,30.5H11.7c-4,0-7.2-3.2-7.2-7.2V11.7c0-4,3.2-7.2,7.2-7.2h11.7c4,0,7.2,3.2,7.2,7.2v11.7
		C30.5,27.3,27.3,30.5,23.3,30.5z M11.7,7.2c-2.5,0-4.5,2-4.5,4.5v11.7c0,2.5,2,4.5,4.5,4.5h11.7c2.5,0,4.5-2,4.5-4.5V11.7
		c0-2.5-2-4.5-4.5-4.5H11.7z"/>
	<path fill="#888787" d="M17.5,23.2c-3.2,0-5.8-2.6-5.8-5.8c0-3.2,2.6-5.8,5.8-5.8c3.2,0,5.8,2.6,5.8,5.8
		C23.2,20.7,20.7,23.2,17.5,23.2z M17.5,14.5c-1.7,0-3,1.3-3,3s1.3,3,3,3s3-1.3,3-3S19.2,14.5,17.5,14.5z"/>
	<circle fill="#888787" cx="24.1" cy="11" r="1.4"/>
</svg>
