<svg xmlns="http://www.w3.org/2000/svg" viewBox="0 0 44 44">
<style type="text/css">
	.st0{fill:url(#SVGID_1_);}
	.st1{fill:url(#SVGID_00000163774216459261868700000003185988849392947085_);}
	.st2{fill:#3AE8BB;}
</style>
<linearGradient id="SVGID_1_" gradientUnits="userSpaceOnUse" x1="7.3344" y1="490.6783" x2="36.6782" y2="461.3344" gradientTransform="matrix(1 0 0 1 0 -454)">
	<stop  offset="0" style="stop-color:#72AFD3"/>
	<stop  offset="1" style="stop-color:#37ECBA"/>
</linearGradient>
<path class="st0" d="M29.3,38H14.7C9.9,38,6,34.1,6,29.3V14.7C6,9.9,9.9,6,14.7,6h14.7c4.8,0,8.7,3.9,8.7,8.7v14.7
	C38,34.1,34.1,38,29.3,38z M14.7,8.7c-3.3,0-6,2.7-6,6v14.7c0,3.3,2.7,6,6,6h14.7c3.3,0,6-2.7,6-6V14.7c0-3.3-2.7-6-6-6H14.7z"/>
<linearGradient id="SVGID_00000080195098755511034490000006781372961231515541_" gradientUnits="userSpaceOnUse" x1="16.4994" y1="481.5006" x2="27.5006" y2="470.4994" gradientTransform="matrix(1 0 0 1 0 -454)">
	<stop  offset="0" style="stop-color:#72AFD3"/>
	<stop  offset="1" style="stop-color:#37ECBA"/>
</linearGradient>
<path style="fill:url(#SVGID_00000080195098755511034490000006781372961231515541_);" d="M22,28.9c-3.8,0-6.9-3.1-6.9-6.9
	s3.1-6.9,6.9-6.9s6.9,3.1,6.9,6.9S25.8,28.9,22,28.9z M22,17.9c-2.3,0-4.1,1.9-4.1,4.1s1.9,4.1,4.1,4.1s4.1-1.9,4.1-4.1
	S24.3,17.9,22,17.9z"/>
<circle class="st2" cx="30.3" cy="13.7" r="1.4"/>
</svg>
