<svg xmlns="http://www.w3.org/2000/svg" viewBox="0 0 35 35" >
<path fill="#888787" d="M26.2,30.5H8.8c-2.4,0-4.3-1.9-4.3-4.3V8.8c0-2.4,1.9-4.3,4.3-4.3h17.5c2.4,0,4.3,1.9,4.3,4.3v17.5
	C30.5,28.6,28.6,30.5,26.2,30.5z M8.8,7.2c-0.9,0-1.5,0.7-1.5,1.5v17.5c0,0.9,0.7,1.5,1.5,1.5h17.5c0.9,0,1.5-0.7,1.5-1.5V8.8
	c0-0.9-0.7-1.5-1.5-1.5C20.5,7.3,14.6,7.2,8.8,7.2z"/>
<path fill="#888787" d="M11.7,24.7c-0.8,0-1.4-0.6-1.4-1.4V16c0-0.8,0.6-1.4,1.4-1.4S13,15.3,13,16v7.3C13,24.1,12.4,24.7,11.7,24.7z"/>
<path fill="#888787" d="M11.7,13.1c-0.8,0-1.4-0.6-1.4-1.4s0.6-1.4,1.4-1.4s1.4,0.6,1.4,1.4l0,0C13,12.4,12.4,13.1,11.7,13.1z"/>
<path fill="#888787" d="M23.3,24.7c-0.8,0-1.4-0.6-1.4-1.4V19c0-0.4-0.2-0.8-0.5-1.1c-0.6-0.6-1.6-0.6-2.2,0c-0.3,0.3-0.5,0.7-0.5,1.1
	v4.4c0,0.8-0.6,1.4-1.4,1.4s-1.4-0.6-1.4-1.4V16c0-0.8,0.6-1.4,1.4-1.4c0.4,0,0.8,0.2,1,0.4c1.6-0.8,3.7-0.5,4.9,0.8
	c0.8,0.8,1.3,1.9,1.3,3v4.4C24.7,24.1,24.1,24.7,23.3,24.7z"/>
</svg>
