<svg xmlns="http://www.w3.org/2000/svg" viewBox="0 0 44 44">
	<style type="text/css">
		.st0{fill:url(#SVGID_1_);}
		.st1{fill:url(#SVGID_00000011024781691051125240000014836482427901652388_);}
		.st2{fill:#4DD4C3;}
		.st3{fill:url(#SVGID_00000125586846302864421400000012880883209707465856_);}
	</style>
		<linearGradient id="SVGID_1_" gradientUnits="userSpaceOnUse" x1="7.3359" y1="490.6828" x2="36.6827" y2="461.3359" gradientTransform="matrix(1 0 0 1 0 -454)">
			<stop offset="0" style="stop-color:#72AFD3" />
			<stop offset="1" style="stop-color:#37ECBA" />
		</linearGradient>
		<path class="st0" d="M33,38H11c-2.8,0-5-2.3-5-5V11c0-2.8,2.3-5,5-5h22c2.8,0,5,2.3,5,5v22C38,35.8,35.8,38,33,38z M11,8.7
		c-1.3,0-2.3,1-2.3,2.3v22c0,1.3,1,2.3,2.3,2.3h22c1.3,0,2.3-1,2.3-2.3V11c0-1.3-1-2.3-2.3-2.3H11z" />
		<linearGradient id="SVGID_00000003064047886667291730000017414706307365044352_" gradientUnits="userSpaceOnUse" x1="14.7" y1="15.3" x2="14.7" y2="27.2165" gradientTransform="matrix(1 0 0 -1 0 46)">
			<stop offset="0" style="stop-color:#6CB6D0" />
			<stop offset="1" style="stop-color:#57CBC8" />
		</linearGradient>
		<path style="fill:url(#SVGID_00000003064047886667291730000017414706307365044352_);" d="M14.7,30.7c-0.8,0-1.4-0.6-1.4-1.4v-9.2
		c0-0.8,0.6-1.4,1.4-1.4s1.4,0.6,1.4,1.4v9.2C16,30.1,15.4,30.7,14.7,30.7z" />
		<path class="st2" d="M14.7,16.1c-0.8,0-1.4-0.6-1.4-1.4s0.6-1.4,1.4-1.4s1.4,0.6,1.4,1.4l0,0C16,15.4,15.4,16.1,14.7,16.1z" />
		<linearGradient id="SVGID_00000006689870129070759030000006171086147594249916_" gradientUnits="userSpaceOnUse" x1="21.1423" y1="482.2661" x2="30.0909" y2="475.1072" gradientTransform="matrix(1 0 0 1 0 -454)">
			<stop offset="0" style="stop-color:#72AFD3" />
			<stop offset="1" style="stop-color:#37ECBA" />
		</linearGradient>
		<path style="fill:url(#SVGID_00000006689870129070759030000006171086147594249916_);" d="M29.3,30.7c-0.8,0-1.4-0.6-1.4-1.4v-5.5
		c0-0.6-0.2-1.2-0.7-1.6c-0.9-0.9-2.4-0.9-3.2,0c-0.4,0.4-0.7,1-0.7,1.6v5.5c0,0.8-0.6,1.4-1.4,1.4s-1.4-0.6-1.4-1.4v-9.2
		c0-0.8,0.6-1.4,1.4-1.4c0.5,0,0.9,0.3,1.2,0.7c1.9-1.1,4.5-0.7,6.1,0.8c1,1,1.5,2.2,1.5,3.6v5.5C30.7,30.1,30.1,30.7,29.3,30.7z" />
</svg>