<svg version="1.1" id="Calque_1" xmlns="http://www.w3.org/2000/svg" xmlns:xlink="http://www.w3.org/1999/xlink" x="0px" y="0px"
	 viewBox="0 0 1497 803" style="enable-background:new 0 0 1497 803;" xml:space="preserve">
<style type="text/css">
	.st0{fill:#26282A;}
	.st1{fill:#3C3D3F;}
	.st2{fill:#36383C;}
	.st3{fill:#28292E;}
	.st4{fill:#424448;}
</style>
<image style="overflow:visible;" width="1035" height="648" xlink:href="ecran.png"  transform="matrix(1.0008 0 0 1.0008 229.7023 54.358)">
</image>
<path class="st0" d="M1293.5,5h-1091c-12.7,0-23,10.3-23,23v717c0,12.7,10.3,23,23,23h1091c12.7,0,23-10.3,23-23V28
	C1316.5,15.3,1306.2,5,1293.5,5z M1265.5,702.9c-345.3,0-690.5,0-1035.8,0c0-216.2,0-432.3,0-648.5c345.3,0,690.5,0,1035.8,0
	C1265.5,270.5,1265.5,486.7,1265.5,702.9z"/>
<path class="st1" d="M1296.5,0h-1096c-14.4,0-26,11.6-26,26v722c0,14.4,11.6,26,26,26h1096c14.4,0,26-11.6,26-26V26
	C1322.5,11.6,1310.9,0,1296.5,0z M1316.5,745c0,12.7-10.3,23-23,23l0,0h-1091c-12.7,0-23-10.3-23-23l0,0V28c0-12.7,10.3-23,23-23
	h1091c12.7,0,23,10.3,23,23V745z"/>
<path class="st2" d="M0,769c0-0.5,0.4-1,0.9-1c0,0,0.1,0,0.1,0h1495c0.5,0,1,0.4,1,0.9c0,0,0,0.1,0,0.1v4H0V769z"/>
<path class="st3" d="M0,773h1497c-71.2,20.8-134.3,25.3-258,30H263C155,800,97.4,793.4,0,773z"/>
<path class="st4" d="M634,768h231v9H634V768z"/>
<path class="st1" d="M865,768h10v6c0,1.7-1.3,3-3,3h-7V768z"/>
<path class="st1" d="M634,768h-10v6c0,1.7,1.3,3,3,3h7V768z"/>
</svg>
